<?xml version='1.0' encoding='utf-8'?>
<svg xmlns:svg="http://www.w3.org/2000/svg" xmlns="http://www.w3.org/2000/svg" width="863" height="196" viewBox="0 0 863 196" version="1.1">
  <g transform="translate(-2 -573)">
    <svg:path transform="translate(843,575)" d="m0 0h20v188h-20v-188z" fill="#B6ADE6" />
    <svg:path transform="translate(483,578)" d="m0 0h21v20h-21v-20z" fill="#B6ADE6" />
    <svg:path transform="translate(4,588)" d="m0 0h20v156h65v19h-85v-175z" fill="#B6ADE6" />
    <svg:path transform="translate(347.29 633.32)" d="m0 0c4.6 5.5 7.8 11 10.71 17.68 0.54-1.3 1.1-2.6 1.63-4 7.1-15 18-24 34.37-27 19-1.2 36 2.6 47.29 18.34 9.9 15 10 32 10.01 49.36-0.01 2.2-0.01 4.4-0.02 6.54-0.01 5.7-0.04 11-0.07 17.08-0.03 5.8-0.04 12-0.06 17.47-0.03 11-0.08 23-0.15 34.21h-20c0-1.4 0-1.4-0.04-8.34-0.05-9.1-0.12-18-0.19-27.37-0.05-5.5-0.08-11-0.11-16.58-0.03-5.3-0.07-11-0.12-16.03-0.02-3-0.03-6-0.04-9.03-0.17-16-0.54-32-13.93-42.15-12-6.7-25-6.2-37.57-0.5-3.1 2.2-3.1 2.2-5 4h-2l-2 4c-0.8 1.4-1.6 2.9-2.43 4.37-6.2 13-6 26-6.08 40.24-0.01 0.97-0.01 0.97-0.05 5.86-0.05 5.1-0.08 10-0.1 15.28-0.03 5.2-0.08 10-0.13 15.65-0.08 10-0.15 20-0.21 30.6h-20c-0.01-2.8-0.02-5.5-0.04-8.34-0.05-9.1-0.12-18-0.19-27.37-0.05-5.5-0.08-11-0.11-16.58-0.03-5.3-0.07-11-0.12-16.03-0.02-3-0.03-6-0.04-9.03-0.17-16-0.54-32-13.93-42.15-12-6.7-25-6.2-37.57-0.5-3.1 2.2-3.1 2.2-5 4h-2l-2 4c-0.8 1.4-1.6 2.9-2.43 4.37-6.2 13-6 26-6.08 40.24-0.01 1.9-0.03 3.9-0.05 5.86-0.05 5.1-0.08 10-0.1 15.28-0.03 5.2-0.08 10-0.13 15.65-0.08 10-0.15 20-0.21 30.6h-20v-140h20l1 22c0.49-0.83 0.49-0.83 2.94-5 16-25 52-28 72.35-6.68z" fill="#B6ADE6" />
    <svg:path transform="translate(637,637)" d="m0 0c7.9 11 11 24 11.11 37.56v5.95c0 2.1-0.01 4.3-0.01 6.42 0 2.2-0.01 4.4-0.01 6.57 0 5.8-0.01 12-0.02 17.27-0.01 5.9-0.02 12-0.02 17.64-0.01 12-0.03 23-0.05 34.59h-20c-0.01-2.7-0.03-5.4-0.04-8.22-0.06-9-0.12-18-0.2-27.04-0.04-5.5-0.08-11-0.11-16.38-0.02-5.3-0.06-11-0.11-15.83-0.03-3-0.04-5.9-0.05-8.92-0.19-18-0.75-34-17.49-44.61-13-5.3-26-4.2-38.75 2.62-12 9.8-15 24-15.46 39.25-0.02 1.8-0.04 3.5-0.06 5.34 0 0.94 0 0.94-0.05 5.72-0.02 2-0.04 3.9-0.06 5.89l-0.15 15.45c-0.05 5.3-0.11 11-0.16 15.79-0.11 10-0.21 21-0.31 30.94h-20v-140h20l1 23 5-9c18-25 57-22 76 0z" fill="#B6ADE6" />
    <svg:path transform="translate(799.54 643.85)" d="m0 0c17 21 22 50 12.46 76.15-10 25-30 42-57 46-28 2-54-5.9-71.03-29.88-15-24-16-53-4.28-78.43 24-44 86-51 119.85-13.84zm-101.18 20.33c-9.3 19-9.2 44 2.64 61.82 12 16 29 24 49 22 19-3.4 35-13 42.22-32.28 6.8-21 5.3-44-9.78-61.22-24-26-67-21-84.08 9.68z" fill="#B6ADE6" />
    <svg:path transform="translate(109,623)" d="m0 0h20c0.01 2.7 0.03 5.4 0.04 8.24 0.06 9 0.12 18 0.2 27.07 0.04 5.5 0.08 11 0.11 16.4 0.02 5.3 0.06 11 0.11 15.86 0.03 3 0.04 6 0.05 8.93 0.17 16 0.65 34 15.37 43.06 13 6.1 26 6.1 38.31-0.12 12-8.9 15-22 15.02-36.57 0.02-1.8 0.04-3.7 0.06-5.58 0.01-2 0.03-4 0.05-6 0.02-2.1 0.04-4.1 0.06-6.16 0.05-5.4 0.1-11 0.15-16.19 0.05-5.5 0.11-11 0.16-16.53 0.11-11 0.21-22 0.31-32.41h20c0.09 12 0.16 24 0.21 36.33 0.02 5.6 0.05 11 0.09 16.87 0.05 5.4 0.07 11 0.08 16.32 0.01 2.1 0.02 4.1 0.04 6.19 0.25 24-3.5 47-25.51 60.75-20 11-45 9.1-63.91-2.46-15-11-21-30-21.11-48.4v-5.76c0-2.1 0.01-4.1 0.01-6.21 0-2.1 0.01-4.2 0.01-6.36 0-5.6 0.01-11 0.02-16.72 0.01-5.7 0.02-11 0.02-17.07 0.01-11 0.03-22 0.05-33.48z" fill="#B6ADE6" />
    <svg:path transform="translate(483,623)" d="m0 0h20v140h-20v-140z" fill="#B6ADE6" />
  </g>
</svg>