<?xml version='1.0' encoding='utf-8'?>
<svg xmlns:svg="http://www.w3.org/2000/svg" xmlns="http://www.w3.org/2000/svg" width="552" height="552" viewBox="0 0 552 552" version="1.1">
  <g transform="translate(-183 -1)">
    <svg:path transform="translate(709.62 3.75)" d="m0 0c0.72-0.01 0.72-0.01 4.35-0.08 6.6 0.54 11 3.3 15.03 8.33 9.5 21-1.5 52-13.53 69.68-16 21-38 34-65.1 34.51-1.7 0.01-3.3 0.03-5.04 0.04-4.3-0.23-4.3-0.23-8.33-2.23 0.94-0.93 1.9-1.9 2.87-2.83 3.5-3.5 7.1-7 10.58-10.46 1.5-1.5 3-3 4.57-4.51 2.2-2.2 4.4-4.3 6.58-6.52 0.66-0.65 0.66-0.65 4-3.95 5.2-5.8 7.4-8.9 7.4-16.73-4.1-6.8-4.1-6.8-9.32-7.37-7.7 0.78-12 6.9-17.71 12.2-0.37 0.37-0.37 0.37-2.26 2.27-2.4 2.4-4.7 4.8-7.09 7.15-1.6 1.6-3.2 3.2-4.83 4.86-3.9 4-7.9 7.9-11.79 11.89-3.7-1.8-2.7-6.3-3-10-1.4-29 13-56 36.63-71.8 16-10 37-14 55.99-14.45z" fill="#B6ADE6" />
    <svg:path transform="translate(615,19)" d="m0 0c0 7.8-2.8 12-6.87 18.55-8.3 13-13 30-13.26 45.61 0 1.4-0.01 2.7-0.01 4.09 0.01 0.7 0.01 0.7 0.02 4.25-0.01 1.4-0.01 2.8-0.02 4.25 0 1.4 0.01 2.7 0.01 4.09v3.73c0.12 3.2 0.54 6.2 1.13 9.43 1.4 12-7.6 18-15.52 25.66-0.79 0.78-1.6 1.6-2.39 2.38-1.6 1.6-3.3 3.3-4.94 4.94-2.5 2.5-5.1 5.1-7.61 7.61-1.6 1.6-3.2 3.2-4.81 4.82l-2.31 2.31c-5.3 5.3-5.3 5.3-6.42 5.28-1.1-10-1.2-21-1.24-31.46-0.01-3-0.04-6-0.07-9.02-0.08-29 5.3-58 24.31-81.52 0.33-0.41 0.33-0.41 2.01-2.5 9.8-12 22-23 37.99-22.5z" fill="#B6ADE6" />
    <svg:path transform="translate(538,54)" d="m0 0c0.63 8.8-1.8 17-4 25-4.6 18-6.3 35-6.09 52.73 0.02 3.3 0.04 6.6 0.06 9.86 0.04 5.1 0.09 10 0.15 15.33 0.04 5 0.07 10 0.1 14.94 0.02 1.5 0.05 3.1 0.07 4.64 0.01 1.4 0.01 2.8 0.02 4.31 0.01 1.2 0.02 2.5 0.04 3.78-0.77 7.5-5.1 11-10.35 16.41-0.53 0.61-0.53 0.61-3.21 3.69-3.9 4.5-8 8.7-12.25 12.94-0.79 0.79-1.6 1.6-2.39 2.4-1.7 1.7-3.3 3.3-4.99 5-2.5 2.5-5 5.1-7.56 7.59-1.6 1.6-3.2 3.3-4.87 4.88-0.74 0.75-1.5 1.5-2.25 2.27-13 13-13 13-16.48 13.23-1.4-19-2.2-39-2.3-58.41-0.01-2.9-0.04-5.9-0.07-8.82 0.02-49 17-96 56.81-126.15 6.2-3.6 12-5.6 19.56-5.62z" fill="#B6ADE6" />
    <svg:path transform="translate(454,100)" d="m0 0c0.81 6.9-1.2 12-3.75 18.5-3.4 9-6.4 18-8.25 27.5-0.36 1.8-0.72 3.5-1.09 5.36-1.6 11-1.2 22-1.1 33.39 0.01 2.4 0.02 4.9 0.02 7.31 0.05 14 0.3 29 0.81 42.92 0.3 8.9 0.53 18 0.61 26.58 0.01 0.57 0.01 0.57 0.06 3.47 0.06 14-5 19-14.32 28.47-0.54 0.54-0.54 0.54-3.28 3.26-3.5 3.4-6.9 6.8-10.4 10.24-2.4 2.3-4.7 4.6-7.04 6.97-5.7 5.7-12 11-17.27 17.03-6.1-3.1-5-8.2-5.45-14.47-0.1-1.3-0.21-2.5-0.31-3.83-0.33-4.1-0.63-8.1-0.93-12.2-0.21-2.7-0.42-5.4-0.64-8.04-9.9-125-9.9-125 27.33-169.46 0.83-1 1.7-2 2.52-3.02 6.7-7.7 14-14 22.48-19.98l4-3c6.7-1.6 12-2.8 16 3z" fill="#B6ADE6" />
    <svg:path transform="translate(716,119)" d="m0 0c2 15-10 28-21 36.44-25 18-58 17-87.06 14.62-1.4-0.08-2.7-0.17-4.13-0.26-7.4-0.49-7.4-0.49-10.81-0.8-0.56-0.05-0.56-0.05-3.36-0.28-0.87-0.24-1.7-0.48-2.64-0.72-1.9-7.6 7.3-13 12.38-18.25 1.3-1.3 2.5-2.6 3.83-3.99 1.2-1.2 2.5-2.5 3.75-3.78 0.57-0.57 0.57-0.57 3.43-3.47 6-4.2 12-2.8 18.99-1.51 28 4.1 52-2.7 75.62-16 4.2-2.1 6.4-2.2 11-2z" fill="#B6ADE6" />
    <svg:path transform="translate(341,166)" d="m0 0c3.9 3.9 3.6 5.6 3 11-1.6 3.2-3.7 5.6-5.95 8.29-21 25-29 56-29.36 88.27v5.39c0.15 23 1.2 46 2.24 69.56 0.61 14 1.2 28 1.35 42.33 0.02 1 0.04 2.1 0.06 3.12 0.02 12-4.2 19-12.98 26.2-4.6 4.1-9 8.4-13.36 12.78-0.77 0.78-1.6 1.6-2.35 2.36-1.9 1.9-3.8 3.8-5.65 5.7-5.1-5.1-4.9-16-6.25-22.62-0.2-1-0.4-2.1-0.6-3.14-3.1-16-5.6-33-7.65-49.3-0.12-1-0.25-2-0.37-3.05-9-74 1.5-144 62.12-193.27 5.3-3.8 9.2-4.7 15.75-3.62z" fill="#B6ADE6" />
    <svg:path transform="translate(575.56 189.75)" d="m0 0c1.2 0.01 2.4 0.02 3.57 0.03 4.3 0.05 8.6 0.13 12.87 0.22 1.8 0.04 3.6 0.07 5.53 0.11 8 0.17 16 0.34 24.03 0.53 30 0.74 30 0.74 43.44-0.64 6.7-0.37 11-0.56 17 3 3.7 7.4 0.05 14-4.18 20.45-11 15-25 22-43.38 26.24-0.98 0.21-2 0.42-2.96 0.64-10 2.1-20 2.9-29.97 2.85h-3.67c-14-0.09-27-0.89-40.86-1.78-4.3-0.28-8.6-0.54-12.9-0.8-2.8-0.18-5.5-0.35-8.29-0.53-0.63-0.04-0.63-0.04-3.85-0.23-6.2-0.42-12-1.1-17.94-2.84 4.6-5.5 9.4-11 14.43-15.67 0.8-0.81 1.6-1.6 2.41-2.44 1.7-1.7 3.4-3.4 5.03-5.06 1.7-1.7 3.4-3.4 5.12-5.18 2.5-2.5 5-5 7.44-7.51 0.76-0.77 1.5-1.5 2.29-2.34 7.9-7.9 14-9.3 24.84-9.05z" fill="#B6ADE6" />
    <svg:path transform="translate(355,207)" d="m0 0c1 6.2 1.4 12 1.76 18.74 0.06 1.2 0.13 2.3 0.2 3.53 0.23 3.8 0.45 7.7 0.67 11.54 0.15 2.7 0.31 5.4 0.47 8.06 0.32 5.6 0.64 11 0.97 16.9 0.41 7.2 0.82 14 1.24 21.56 0.33 5.6 0.65 11 0.96 16.66 0.16 2.6 0.31 5.3 0.46 7.94 2.5 43 2.5 43-13.73 60.07-0.78 0.82-1.6 1.6-2.36 2.48-3.1 3.2-5.6 5.5-9.64 7.52-0.49-5.9-0.96-12-1.44-17.81-0.06-0.82-0.06-0.82-0.41-4.95-1.8-23-2.3-46-2.34-68.38 0-3.6-0.02-7.3-0.03-10.95-0.05-16 0.96-31 5.1-46.85 0.49-1.9 0.98-3.8 1.49-5.77 6.9-22 6.9-22 16.63-20.29z" fill="#B6ADE6" />
    <svg:path transform="translate(525.57 260.17)" d="m0 0c1 0.06 2 0.12 3.1 0.19 5.4 0.32 11 0.65 16.22 0.98 5.6 0.34 11 0.66 16.67 0.98 4.3 0.25 8.6 0.52 12.91 0.79 2 0.12 4.1 0.24 6.14 0.35 10 0.59 20 1.2 29.39 5.54-12 17-37 22-56.3 22.18-1.1 0-2.2 0-3.4-0.01-14-0.09-27-0.91-41.07-1.77-4.5-0.28-9-0.54-13.42-0.8-2.9-0.18-5.7-0.35-8.6-0.53-0.66-0.04-0.66-0.04-4.02-0.24-6-0.38-11-0.8-17.19-2.83 4.8-5.8 9.9-11 15.25-16.38 0.82-0.82 1.6-1.6 2.47-2.48 11-11 27-6.9 41.85-5.97z" fill="#B6ADE6" />
    <svg:path transform="translate(638,284)" d="m0 0c3.3 8.2-0.26 13-5 20-27 32-60 48-102.31 48.31-1.7 0-3.4 0-5.13-0.01-23-0.17-45-1.6-68.04-2.92-5.8-0.34-12-0.65-17.37-0.95-3-0.17-6.1-0.33-9.09-0.49-1.3-0.07-2.6-0.14-3.99-0.21-6.9-0.38-13-1.2-20.07-2.73 5.5-11 25-33 37-37 6.9-0.18 14 0.23 20.45 0.88 2 0.18 4.1 0.36 6.13 0.54 1.1 0.1 2.1 0.19 3.23 0.29 19 1.7 38 2.7 56.94 2.73 0.95 0 0.95 0 5.75 0.03 32-0.19 63-6 88.24-26.68 4.4-3.5 8-2.8 13.26-1.79z" fill="#B6ADE6" />
    <svg:path transform="translate(228,311)" d="m0 0c8.8 5.3 9.3 15 9.99 24.08 0.15 1.9 0.29 3.9 0.44 5.9 0.07 1 0.14 2 0.22 3.09 2.3 33 6.9 65 12.76 97.02 0.33 1.9 0.67 3.7 1.02 5.66 0.3 1.7 0.6 3.3 0.91 5.05 0.66 4.2 0.66 4.2 0.66 9.2-22-15-32-38-38.25-62.69-0.45-1.6-0.89-3.3-1.35-4.95-6.4-24-10-59 2.6-81.36 4.1-2.8 6.2-2.1 11-1z" fill="#B6ADE6" />
    <svg:path transform="translate(429.42 370.46)" d="m0 0c2.5 0.15 5 0.3 7.44 0.46 5.2 0.31 10 0.63 15.46 0.96 6.6 0.41 13 0.82 19.75 1.22 5.1 0.31 10 0.62 15.3 0.94 2.4 0.16 4.9 0.3 7.29 0.45 3.4 0.21 6.8 0.42 10.17 0.64 1.9 0.12 3.8 0.24 5.82 0.36 13 1.2 13 1.2 17.35 3.51-4.6 9.1-13 12-21.62 14.81-1.1 0.4-2.2 0.79-3.39 1.19-28 9.7-61 3.6-90.29 1.97-5.2-0.29-10-0.58-15.59-0.85-5-0.27-10-0.55-15.04-0.83-1.9-0.1-3.7-0.2-5.64-0.3-1.7-0.1-3.4-0.2-5.18-0.3-1.5-0.09-3-0.17-4.55-0.26-3.7-0.43-3.7-0.43-7.7-2.43 4.4-5.2 9-10 13.75-14.88 1.3-1.3 2.6-2.6 3.99-3.99 10-9.9 39-3.6 52.68-2.67z" fill="#B6ADE6" />
    <svg:path transform="translate(565,389)" d="m0 0c4.3 3.2 4.9 4.6 6 10-2.9 8.2-9.1 14-15 20-0.57 0.6-0.57 0.6-3.46 3.65-67 69-160 61-245.66 42.73-0.7-0.14-0.7-0.14-4.19-0.84-1.3-0.28-2.5-0.55-3.82-0.83-1.1-0.23-2.2-0.47-3.37-0.71-2.5-1-2.5-1-3.5-5 2.5-3.1 2.5-3.1 6.18-6.71 1.3-1.3 2.6-2.6 4.01-3.96 1.4-1.4 2.8-2.7 4.25-4.14 1.4-1.4 2.7-2.7 4.14-4.11 6.3-6.2 13-12 19.42-18.08 0.46-0.47 0.46-0.47 2.81-2.88 7.7-7.4 27-2.8 36.99-2.06 1.6 0.11 3.1 0.22 4.72 0.33 4.9 0.34 9.9 0.69 14.79 1.05 4.9 0.35 9.8 0.69 14.77 1.04 3 0.21 6.1 0.43 9.14 0.64 17 1.2 34 2.1 51.66 2.19 0.87 0.02 0.87 0.02 5.31 0.09 33 0.16 59-11 84.81-31.4 3.4-1.7 6.3-1.3 10-1z" fill="#B6ADE6" />
    <svg:path transform="translate(251.81 484.44)" d="m0 0c3.6 4.2 3.2 4.4 3.19 10.56-4.3 7.6-10 13-16.07 19.44-0.48 0.48-0.48 0.48-2.91 2.9-2 2-4 4-6.05 6.03-3.1 3.1-6.2 6.2-9.27 9.26-2 2-3.9 3.9-5.9 5.87-0.92 0.92-1.8 1.8-2.79 2.8-0.87 0.85-1.7 1.7-2.61 2.58-0.76 0.75-1.5 1.5-2.29 2.27-4.5 4-8.3 4.4-14.11 3.85-4.8-2.9-6.9-5.9-7.13-11.62 2.4-9.5 11-17 18.26-23.78 0.85-0.84 1.7-1.7 2.56-2.56 1.8-1.8 3.5-3.5 5.3-5.29 2.7-2.7 5.4-5.4 8.1-8.11 1.7-1.7 3.4-3.4 5.17-5.16 0.8-0.81 1.6-1.6 2.43-2.45 6.9-6.8 15-14 24.12-6.59z" fill="#B6ADE6" />
    <svg:path transform="translate(277,484)" d="m0 0c0.77 0.15 0.77 0.15 4.68 0.88 7.4 1.4 15 2.8 22.32 4.12 1.4 0.25 2.8 0.5 4.17 0.76 28 5.1 57 10 85.09 10.35 0.61 0 0.61 0 3.7 0.04 2.5 0.03 5 0.03 7.49 0.02 9.6 0.16 17 1.8 22.86 10.39 0.69 3.4 0.69 3.4-2.31 8.44-14 8.1-33 9.7-49 9-1.2-0.04-2.4-0.09-3.65-0.13-11-0.82-22-3.3-33.54-6.06-1.5-0.36-3-0.72-4.57-1.09-22-5.5-45-16-57.24-35.72v-1z" fill="#B6ADE6" />
  </g>
</svg>